<svg id="图层_1" data-name="图层 1" xmlns="http://www.w3.org/2000/svg" viewBox="0 0 514.08 211.96"><defs><style>.cls-1{fill:#e60012;}.cls-2{fill:#333;}</style></defs><title>logo</title><circle class="cls-1" cx="97.5" cy="16.5" r="16.5"/><path class="cls-1" d="M0,75S0,21,27,17c11.16-.74,9,14,1,30a183.69,183.69,0,0,0-7,19c-3.31,11.42-9,44-8,61,0,18,2.29,21.32,6.29,21.32,8,.35,14.7-22.7,58.74-38.35,42.15-11.21,53.69-22.72,59-29.69a26.11,26.11,0,0,0,2.49-3.62c1-2,.48-2.66.48-2.66-1.25-2.29-12.25,3.71-17.37,5.92-25.42,10.21-28.92,9.25-49.37,17.5A141.3,141.3,0,0,0,48,110c-21.9,15-9-5.69,2-13.69,5-4,13-9.94,19-12.94,15.24-8.8,28.33-12,42.41-17.45,15.21-6,18.91-8.32,23-12,2.29-2,5.95-6.55,4.66-8.47-1.65-2.27-6.78-.88-19.42,3.7C92.47,59,101.09,55.67,78,65.24,69.54,69.17,52.94,79.7,50,82c-11.31,7.64-14.19,6.42-9.54-1.64,6.9-9.63,12.4-15.55,21.4-22.55C81,44.54,90.8,41.3,108.29,35.08c13.36-4.66,28.76-10.34,38.25-15.42,8-4,14.65-7.09,19.46-6.67,5,.47,5,9,3,17-2,7-15,70-49,88-27.19,15.29-67,18-87,56.43C29.54,180.61,27,189,25,196,9,231,0,192,0,176Z"/><path class="cls-1" d="M78,152.54c-2.2.54-4.58.6-10.67,6.1A26.46,26.46,0,0,0,60.61,176a22.24,22.24,0,0,0,11.25,18.76c5.07,2.85,12.31,4.31,22.14,5.26,11.49.68,1-1.57-8.47-6.94-4.57-2.58-9.39-7.06-10.79-9.94a16.82,16.82,0,0,1-.24-13.19,12.17,12.17,0,0,1,7.86-6c2.41-.42,8.6-.06,8.72-5.34C91.12,155.07,87.42,151.15,78,152.54Z"/><path class="cls-1" d="M144,139c6.56.28,25.35,6.75,20.92,23.33-2.42,9.07-10.42,24-31.79,36.46-6.62,4.13-15.45,7.32-20.2,9.14a84.72,84.72,0,0,1-9.91,2.94c-14.08,2.73-7.95,0,.26-4.52,6.45-4.1,9.88-5.29,14.38-8.83,8-6,10.35-8.51,11.35-9.51,8.61-9,11.94-17.07,12-22-.1-9.86-8.09-13.2-12-13.75-7.09-.85-14.6,3.05-15-3.25C114.07,142.64,125.15,137.56,144,139Z"/><path class="cls-2" d="M244.89,114.19V110.3l-23.6,1.4v-3a2.8,2.8,0,0,1,2.7-2.8h0V37.3h0a2.7,2.7,0,0,1-2.7-2.7v-3H262v3a2.7,2.7,0,0,1-2.7,2.7h0V103.8l2.7-.2v2.89a2.91,2.91,0,0,1-2.7,2.91h0v12.8h-6.39A8,8,0,0,1,244.89,114.19Zm-6.7-57.29h6.7V44a6.7,6.7,0,0,0-6.7-6.7h0Zm0,23.8h6.7V62.6h-6.7Zm0,24.3h0a7.12,7.12,0,0,0,6.7-7.11V86.4h-6.7Zm25.7,17.1,6.32-31.76a8,8,0,0,1,7.85-6.44h7.43l-6,31.67a8,8,0,0,1-7.87,6.52Zm43.4-91.89c3.4,0,6.1,3.1,6.1,6.7V71.5c0,3.8-2.7,6.8-6.1,6.8h-34.6a6.52,6.52,0,0,1-6.3-6.8V36.9a6.56,6.56,0,0,1,6.3-6.7Zm-11.5,42.3a3.6,3.6,0,0,0,3.4-3.8V39.8a3.7,3.7,0,0,0-3.4-3.9h-11.1a3.79,3.79,0,0,0-3.6,3.9V68.7a3.76,3.76,0,0,0,3.6,3.8Zm4.57,43.08-6-31.68h7.45a8,8,0,0,1,7.84,6.42l6.4,31.78h-7.86A8,8,0,0,1,300.36,115.58Z"/><path class="cls-2" d="M334,122.09V78.2h-.87a8,8,0,0,1-7.49-10.79,278.72,278.72,0,0,0,10.2-33.72,8,8,0,0,1,7.78-6.18h9a225.17,225.17,0,0,1-6.8,26.6h0a3.4,3.4,0,0,1,3.4,3.4v56.59a8,8,0,0,1-8,8Zm22.3-83.39h22.3V27.5h15.1V38.7H416a5.7,5.7,0,0,1-5.7,5.7H362A5.7,5.7,0,0,1,356.28,38.7Zm52,48.5a6.66,6.66,0,0,1,6.7,6.5v21.6a6.68,6.68,0,0,1-6.7,6.6h-44.4a6.59,6.59,0,0,1-6.6-6.6V93.7a6.57,6.57,0,0,1,6.6-6.5Zm-49.8-31.7H408a5.7,5.7,0,0,1,5.7,5.7h-49.5A5.7,5.7,0,0,1,358.48,55.5Zm0,16.9H408a5.7,5.7,0,0,1,5.7,5.7h-49.5A5.7,5.7,0,0,1,358.48,72.4ZM396,116.2a3.8,3.8,0,0,0,3.8-3.8V96.6a3.8,3.8,0,0,0-3.8-3.8h-19.7a3.8,3.8,0,0,0-3.8,3.8v15.8a3.8,3.8,0,0,0,3.8,3.8Z"/><path class="cls-2" d="M483,116.59h12.2a3.86,3.86,0,0,0,3.8-3.8V38.7a3.8,3.8,0,0,0-3.8-3.8h-53a3.8,3.8,0,0,0-3.8,3.8h0a5.4,5.4,0,0,0,5.4,5.4h0a7.6,7.6,0,0,1,7.29,5.47l3,10.33c.71-3.14,1.35-6.25,2-9.37a8,8,0,0,1,7.84-6.43h9.19a8,8,0,0,1,7.68,5.76l2.92,10c1.2-5.2,2.2-10.5,3.2-15.8h0a9.17,9.17,0,0,1,9,11q-2.58,13-6,25.91l9.1,30.9h-11.1l-3.6-12.1c-1.3,4.1-2.7,8.1-4.1,12.1h-22l-3.5-12c-1.3,4-2.7,8-4.1,12h-11.4c3.6-10.5,6.9-21,9.8-31.6l-10.6-36.2v78.19h-7.1a8,8,0,0,1-8-8V35.8a6.62,6.62,0,0,1,6.6-6.6h77.59a6.59,6.59,0,0,1,6.6,6.6v79.79a6.7,6.7,0,0,1-6.7,6.7h-18.7a5.7,5.7,0,0,1-5.7-5.7Zm-22.7-35.7,8.8,30c3.5-10.1,6.7-20.3,9.5-30.5l-10.5-35.6C466,57,463.48,69,460.28,80.9Z"/><path class="cls-2" d="M221.29,139.41h4.58v19.53h24.56V139.41H255v45h-4.58V163.14H225.87v21.31h-4.58Z"/><path class="cls-2" d="M271.55,184.46H267v-45H280.2a28,28,0,0,1,6.14.64,13.87,13.87,0,0,1,4.9,2.07,9.77,9.77,0,0,1,3.21,3.72,12.43,12.43,0,0,1,1.15,5.6,11,11,0,0,1-3.31,8,11.58,11.58,0,0,1-3.63,2.39,15.77,15.77,0,0,1-4.58,1.15l13.17,21.44h-5.6L279.19,163.4h-7.64Zm0-25h8q5.54,0,8.53-2a6.75,6.75,0,0,0,3-6,7.81,7.81,0,0,0-.83-3.75,6.78,6.78,0,0,0-2.29-2.48,10.46,10.46,0,0,0-3.56-1.4,22.48,22.48,0,0,0-4.64-.44h-8.14Z"/><path class="cls-2" d="M349,143.23l-26.28,37.16h26.66v4.07H317v-3.82l26.34-37.16H317.68v-4.07H349Z"/><path class="cls-2" d="M357.38,139.41H362v19.53h24.56V139.41h4.58v45h-4.58V163.14H362v21.31h-4.58Z"/><path class="cls-2" d="M407.64,184.46h-4.58v-45h4.58Z"/><path class="cls-2" d="M434.36,157.61l12.28-18.2h5.47l-15,21.44,16.54,23.6H448l-13.74-20.3-13.68,20.3h-5.73l16.54-23.67-15.08-21.38H422Z"/><path class="cls-2" d="M465.47,184.46h-4.58v-45h4.58Z"/><path class="cls-2" d="M509.37,177.78h.13V139.41h4.58v45h-5.73l-26.21-38.75H482v38.75h-4.58v-45h5.73Z"/></svg>